#!OML:ASF F:\VICON\USERDATA\INSTALL\rory3\rory3.ASF
:FULLY-SPECIFIED
:DEGREES
1
root 0.09631842479720587 17.550300837851704 -14.398189977531459 7.934853269237882 1.0999244041398466 -1.2977879049667116
lfemur -16.19430355928415 6.078164840462385 -16.890407965728386
ltibia 20.03570478263147
lfoot -9.131520637514623 4.921012111560024
ltoes -11.059498937417825
rfemur -15.666604237885748 -3.9335288709650564 19.931605111468688
rtibia 21.357505599193665
rfoot -13.18480026017878 -0.9210730923628825
rtoes 8.764088781856767
lowerback -0.4473960591990682 -0.7962243531721629 1.0254868263007906
upperback 5.580987660646948 -1.1992295643139657 1.8793647280090944
thorax 6.055421404450437 -0.5968632507380648 1.3103374759540563
lowerneck -10.579206238853851 -0.36469953172264463 -2.9984492405892613
upperneck 36.059086587785146 -0.38813742238391646 1.6792492043964597
head 14.066785351941153 -0.3528250324856277 1.1568512719622608
lclavicle 1.0938629884954812e-15 -2.215699544041673e-15
lhumerus -16.908107850388284 2.637514748012446 86.9097989279512
lradius 21.269101325982597
lwrist 1.802804138532073
lhand -23.135603719888262 -3.3766268633744785
lfingers 7.12502
lthumb 3.3121262423274844 26.577393091923412
rclavicle 1.0938629884954812e-15 -2.215699544041673e-15
rhumerus -17.092912740224353 -12.89469975004001 -81.46569452780282
rradius 28.400299358879444
rwrist 28.89951473826411
rhand -19.22788773867968 -27.459192280962217
rfingers 7.12502
rthumb 7.085162303890403 -57.32059194376391
2
root 0.0949934932308858 17.545000866407825 -14.37068955207252 7.718903627121637 1.0112651111095834 -1.3386172330355985
lfemur -15.68740410351139 6.309703635272749 -16.78840863247362
ltibia 19.76140552048017
lfoot -9.376810389737088 4.697332621956439
ltoes -11.087598888700146
rfemur -15.375504431937962 -3.9196689230102653 19.963204949913788
rtibia 21.42540481475632
rfoot -13.301700144876271 -0.8875900731205544
rtoes 8.70838878741266
lowerback -0.6802137096014931 -0.769593694248015 1.0135569567376703
upperback 5.459488244883857 -1.1645498829641225 1.8513852799872457
thorax 6.059321387092098 -0.5792835709547277 1.2871577948486936
lowerneck -10.608106110572248 -0.35512970781407144 -2.9591802369868248
upperneck 36.08748614857671 -0.34896278151713483 1.58432007728793
head 14.085185254062008 -0.3434473062005385 1.1174427870393875
lclavicle 1.0938629919530496e-15 -2.215699575421784e-15
lhumerus -17.01200766264735 0.6431087438010983 87.87119686581092
lradius 22.04540009758451
lwrist 3.0861130839827493
lhand -23.878299496497753 -4.640161890210252
lfingers 7.12502
lthumb 2.5949005008266175 25.323798064540227
rclavicle 1.0938629919530496e-15 -2.215699575421784e-15
rhumerus -17.164412414751894 -14.221198127670535 -81.07759562098981
rradius 27.33210085962399
rwrist 30.205411384840332
rhand -19.21538781555594 -27.449992372054844
rfingers 7.12502
rthumb 7.097242268791466 -57.310992017992014
3
root 0.1042180952664109 17.539500914869524 -14.344990080895048 7.418084160908766 0.9785373874135628 -1.3619468631454983
lfemur -15.091704551434436 6.562472225168014 -16.735708926652705
ltibia 19.457105112084342
lfoot -9.576050193689072 4.3912430784675065
ltoes -11.24529865222273
rfemur -14.985004471256437 -3.8445892318362604 19.930505133308902
rtibia 21.50620555151241
rfoot -13.417100036800134 -0.9972209684727633
rtoes 8.451809128809124
lowerback -0.9026724704452234 -0.7649417612958944 0.9833351960939154
upperback 5.391278570440602 -1.1577699184959664 1.792976392300128
thorax 6.1139613050174475 -0.5755446460048558 1.2410984606170057
lowerneck -10.723505692814634 -0.26417230933683067 -2.9116314202815
upperneck 36.253985701906615 -0.22328503122493715 1.5861400605636058
head 14.183884882540196 -0.28423005901639686 1.1304922749361945
lclavicle 1.0938629906880881e-15 -2.215699563706544e-15
lhumerus -16.878708020845757 -1.2185113847533384 88.62349528896846
lradius 22.261399768683113
lwrist 3.644962431748909
lhand -23.50760161080335 -3.8339050789083275
lfingers 7.12502
lthumb 2.9528483782685977 26.12539491178557
rclavicle 1.0938629906880881e-15 -2.215699563706544e-15
rhumerus -17.23811215328238 -15.57599642394523 -80.88319620888501
rradius 26.354602186314153
rwrist 31.24400915208391
rhand -19.05248880818527 -27.428592516445725
rfingers 7.12502
rthumb 7.254441217921949 -57.28419225757031
4
root 0.1231238866817303 17.534700946740607 -14.3203902167626 7.076214590279509 0.9097828852527994 -1.372766706075685
lfemur -14.447804958910892 6.826120935607291 -16.73120895902711
ltibia 19.15080544538302
lfoot -9.771680004950001 4.113903627010946
ltoes -11.179098725849338
rfemur -14.523705032370664 -3.6390900586303827 19.83710575920396
rtibia 21.528005260490275
rfoot -13.512499946020275 -1.226303433209291
rtoes 8.135739510457453
lowerback -1.130197149369578 -0.7572178313077651 0.913218874767963
upperback 5.355138592135132 -1.1459400581425019 1.7378274535082046
thorax 6.206421082632312 -0.5714106995000833 1.2210387302776418
lowerneck -10.894605322292703 -0.12817069539733839 -2.8014041109337033
upperneck 36.59798517991763 -0.020897209283092612 1.5191406741599696
head 14.37668451705014 -0.19428173142908034 1.1184127368254766
lclavicle 1.0938629843632712e-15 -2.2156995352551935e-15
lhumerus -16.655908330009794 -2.451890177660076 89.14979410722596
lradius 22.010500150807964
lwrist 3.5047625461576963
lhand -23.11430388073861 -3.605576036797945
lfingers 7.12502
lthumb 3.3327061227723425 26.348093940458796
rclavicle 1.0938629843632712e-15 -2.2156995352551935e-15
rhumerus -17.428611853261458 -16.654095295992988 -80.85049633471247
rradius 25.69240304544632
rwrist 32.117907130962
rhand -18.779190528201514 -27.389792900618975
rfingers 7.12502
rthumb 7.518299443474029 -57.23619262871084
5
root 0.1500861623438115 17.529300985249517 -14.302689618137688 6.797964896581089 0.8827881950265803 -1.4380056757190753
lfemur -13.987805039542895 6.9513402861190166 -16.69230918075453
ltibia 18.993505233601255
lfoot -9.936379837446614 3.901024041615535
ltoes -11.070698873843423
rfemur -14.135604893115014 -3.440970861423245 19.78650612897193
rtibia 21.513704753532075
rfoot -13.55919990464124 -1.5199628921010537
rtoes 7.694410041742374
lowerback -1.3193167837529436 -0.7776175962029408 0.8589933484796721
upperback 5.292868921979737 -1.1733697369823586 1.733007546755968
thorax 6.250691008184315 -0.5874264177036427 1.2423684443927678
lowerneck -10.896705217800523 0.005455185121772704 -2.7144062314355395
upperneck 36.73428577184178 0.18667995532667128 1.4314214765130087
head 14.43518414445242 -0.10672332603270357 1.0995934633952023
lclavicle 1.0938629925433687e-15 -2.215699567472174e-15
lhumerus -16.443208059836167 -3.155879516074237 89.53229333571531
lradius 21.656900704793042
lwrist 3.266232919416673
lhand -23.15740362778674 -3.4118267193840146
lfingers 7.12502
lthumb 3.2910963722840076 26.54249315775702
rclavicle 1.0938629925433687e-15 -2.215699567472174e-15
rhumerus -17.755911409228887 -17.21249427955325 -80.95309601561848
rradius 25.50520332426259
rwrist 32.444506457287
rhand -18.603691596016603 -27.276493853698245
rfingers 7.12502
rthumb 7.687668347423935 -57.116693649035206
6
root 0.1815511328044298 17.525401012471743 -14.29098927207005 6.650525464764309 0.7795800493049025 -1.4679751811910355
lfemur -13.729505333006585 7.101899391993178 -16.737908906353578
ltibia 18.925405689315337
lfoot -10.079499701965382 3.7505342925905443
ltoes -11.003298978453056
rfemur -13.950104996318162 -3.163671998154631 19.685906741161954
rtibia 21.558805288532746
rfoot -13.61259984679548 -1.8319723565353943
rtoes 7.2253706079377755
lowerback -1.527616449750595 -0.7950033902085789 0.7537732777154251
upperback 5.221359146602676 -1.1945295436645393 1.7311175870825393
thorax 6.297300923321313 -0.6029801103708801 1.2954276801583506
lowerneck -10.838105457225499 0.09657594816112365 -2.6840869891491375
upperneck 36.6036855956319 0.3552663032783125 1.3118925820150542
head 14.356384318006995 -0.04553024420010839 1.068204660600183
lclavicle 1.0938629818333146e-15 -2.2156995645433377e-15
lhumerus -16.350808182866764 -3.3044993474675555 89.7280929675548
lradius 21.513600927922315
lwrist 2.9658829845302024
lhand -23.062104155857597 -3.274477330134708
lfingers 7.12502
lthumb 3.383095836066393 26.678392685272797
rclavicle 1.0938629818333146e-15 -2.2156995645433377e-15
rhumerus -18.153610951374993 -17.438594292055363 -81.20989524293438
rradius 25.71750305112944
rwrist 32.25140692003687
rhand -18.57289184384607 -27.234994230855957
rfingers 7.12502
rthumb 7.717428226584542 -57.07419401368445
7
root 0.2147390120048689 17.52410101446863 -14.287489856840208 6.621325277740526 0.5741078363097953 -1.4908248124329182
lfemur -13.6221052283572 7.2701584803171055 -16.824808406373776
ltibia 18.86700587138622
lfoot -10.167299590963143 3.7366142879200224
ltoes -10.98399902556238
rfemur -13.93730508577878 -2.8795830986505613 19.579507435528594
rtibia 21.58680521731067
rfoot -13.610199852549526 -2.0562319218547334
rtoes 6.75964120216108
lowerback -1.6958062794666828 -0.7916494325216384 0.6698460429391317
upperback 5.120989601251452 -1.1861996948609785 1.7103479878057366
thorax 6.288710852973214 -0.6023041282093188 1.3194473545510208
lowerneck -10.848405428746824 0.16461414697946775 -2.6748872399186054
upperneck 36.49738533691514 0.48325603631881336 1.2278933316829526
head 14.306184631101242 -0.00034094841658844494 1.0497253571446328
lclavicle 1.0938630021571396e-15 -2.2156995678905025e-15
lhumerus -16.428508433949936 -3.42010924838728 89.78629289905265
lradius 21.577300797653876
lwrist 3.0613030973043465
lhand -23.16290360119857 -3.348416977191157
lfingers 7.12502
lthumb 3.2857964331935396 26.60599297677284
rclavicle 1.0938630021571396e-15 -2.2156995678905025e-15
rhumerus -18.561610105866045 -17.515893969442978 -81.61959404916183
rradius 26.02870276809901
rwrist 31.78650804519699
rhand -18.680091158426116 -27.27189389924456
rfingers 7.12502
rthumb 7.6139488101927135 -57.114793671815725
